<svg xmlns="http://www.w3.org/2000/svg" viewBox="0 0 1087.05 1072.49"><defs><style>.cls-1{fill:#ccd4e5;}.cls-2{fill:#e7eaf5;}.cls-3{fill:#5e6aa0;}.cls-12,.cls-4{fill:#8b9bc3;}.cls-5{fill:#fff;}.cls-6{fill:#f1d87f;}.cls-7{fill:#e7ac65;}.cls-8{fill:#a94151;}.cls-9{fill:#d78058;}.cls-10{fill:#323879;}.cls-11{fill:#5f73b3;}.cls-12{opacity:0.56;}.cls-13{fill:#000401;}.cls-14{fill:#312b65;}.cls-15{fill:#e19b84;}.cls-16{fill:#d8796e;}.cls-17{fill:#3c455d;}.cls-18{fill:#273045;}.cls-19{fill:#b1bcd2;}.cls-20{opacity:0.5;}.cls-21{fill:#5b8b77;}.cls-22{fill:#94c384;}.cls-23,.cls-25{fill:#b4bfd3;}.cls-24{fill:#364d4d;}.cls-25{opacity:0.58;}.cls-26{fill:#78b066;}</style></defs><g id="OBJECTS"><path class="cls-1" d="M464.42,883.24s-5.07,1.8-5.38-4.37,0-8.07,1.26-11.39-2.69-4.11,5.07-5.38,13,3,15,4a5.92,5.92,0,0,1,3.63,6.61c-.63,3.51-1.2,7,.11,10.57s2.33,6.55,0,7.34-7.86,3.64-9.6,1.9.32-2.85-3.64-4.12-4.74-.15-5.53-1.9A11.29,11.29,0,0,1,464.42,883.24Z"/><path class="cls-1" d="M503.46,870.24S504.61,865,510,868s6.84,4.27,9,7.1,4.91-.1,1.88,7.15-9.42,9.41-11.32,10.65a5.94,5.94,0,0,1-7.54-.42c-2.64-2.39-5.31-4.74-9-5.5s-6.78-1.5-6.22-3.89,1.08-8.6,3.47-9.15,2.25,1.78,5.42-.91,2.65-3.94,4.54-3.69A11.57,11.57,0,0,1,503.46,870.24Z"/><path class="cls-2" d="M488.08,845.53s1.42-6.45,8.05-2.76,8.41,5.25,11.05,8.73,6-.12,2.31,8.78-11.58,11.56-13.91,13.08a7.28,7.28,0,0,1-9.26-.51c-3.24-2.94-6.53-5.82-11.08-6.76s-8.34-1.84-7.65-4.78,1.33-10.56,4.27-11.24,2.77,2.18,6.66-1.11,3.25-4.85,5.58-4.54A14.37,14.37,0,0,1,488.08,845.53Z"/><path class="cls-1" d="M493.39,827.21s4.51-.19,3.23,4.83-2,6.48-3.85,8.82,1.14,4-5.4,3.06-9.65-5.64-11.07-6.91A5,5,0,0,1,475,830.8c1.38-2.66,2.71-5.33,2.54-8.5s-.23-5.83,1.83-5.89,7.21-1,8.17.87-1,2.2,1.9,4.2,3.76,1.31,4,2.9A9.52,9.52,0,0,1,493.39,827.21Z"/><path class="cls-2" d="M513,828.23s-.85,5.77-6.92,2.94-7.73-4.11-10.27-7-5.3.49-2.57-7.58,9.47-10.9,11.43-12.39a6.46,6.46,0,0,1,8.19-.12c3,2.39,6.1,4.72,10.17,5.27s7.46,1.1,7,3.73-.51,9.38-3.06,10.17-2.57-1.76-5.79,1.39-2.57,4.46-4.64,4.34A12.51,12.51,0,0,1,513,828.23Z"/><path class="cls-3" d="M539.81,768.41h-101l14,128h73l3.52-32.17.07-.05-.06-.06L535,812l.06-.06-.05-.06L538.43,781l.06,0,0,0,1.21-11Zm-87,22.1,16.11,12.68-16.75,11.9-5.88-4.77-1.55-14.16Zm-8.4,2.59L443.29,783l7.28,5.73Zm36.17-22.05h18l7.86,5.51-16.85,12-16.86-12Zm-10.21,3.85-5.43-3.85h10.92Zm32.9-3.85h10.92l-5.43,3.85Zm-16,19.14-16,11.37-16.1-12.68,15.23-10.67Zm-14.09,89.44-10.75-8.71,13-10.57,11.86,8.79Zm16.43-8.8,14.25,10.56-14.25,11.53L475.3,881.39Zm-12-12.24,12-9.69,12,9.69-12,8.86Zm-2.25-1.67-17.19-12.74,13-10.22,16.27,13.19Zm16.37-9.77L508,834l13,10.22-17.2,12.74Zm-2.15-1.75-16.24-13.17,16.24-12.78,16.24,12.78Zm-18.41-14.92-16.81-13.62,16.79-11.92,16.23,12.78Zm2.29-27.18,16.12-11.45,16.12,11.45L489.55,816Zm-23.58,13.42-2.67,1.9-.49-4.46Zm2.18,1.77L469,832.2l-13.08,10.3-6.45-4.78-.13.15-1.77-16.17Zm1.64,25.75-3.4,2.67-.61-5.64Zm2.26,1.67,17.23,12.77-13,10.49L452,862.51l-1.36-12.42Zm2.12,25-4.73,3.84-.92-8.41Zm2.16,1.75,10.66,8.63L455.3,892.83,453.67,878ZM473,883.06l13.2,10.69H458.62Zm33,0,14.43,10.69H492.85Zm2.18-1.76,10.65-8.63,6.13,5-1.63,14.89ZM506,879.63l-14.15-10.49,11.86-8.79,13,10.57Zm0-21,17.22-12.77,4.9,3.86-1.44,13.14-7.74,6.26Zm19.49-14.44,3.52-2.61-.54,5Zm3.92-6.28-6.13,4.54-13.08-10.3,16.92-13.71,4.1,2.91ZM508,830.48l-16.21-12.76L508,804.94l16.79,11.92Zm2.24-27.29,16.11-12.68,7.65,5.36-1.62,14.85-5.39,4.37Zm-2.31-1.63-16-11.37,16.87-12L524,788.88Zm3.22-25,7.74-5.5h17.83l-.94,8.58-9.53,7.5Zm-50.85-5.5,7.75,5.5-15.11,10.58-10-7.88-.9-8.2Zm65.11,103.38L521,870.92l5.16-4.18Zm6.14-56.1-2.26-1.61,2.67-2.16Zm2.79-25.53-5.77-4,6.79-5.34Z"/><rect class="cls-4" x="434.74" y="759.18" width="110.59" height="18.02" rx="5"/><path class="cls-1" d="M424.75,894.17s-.85,5.77-6.92,2.93-7.73-4.1-10.27-7-5.3.48-2.57-7.59,9.47-10.89,11.43-12.38a6.43,6.43,0,0,1,8.19-.12c3,2.39,6.1,4.72,10.17,5.26s7.46,1.11,7,3.74-.51,9.38-3.06,10.16-2.57-1.75-5.79,1.39-2.57,4.47-4.64,4.34A12.32,12.32,0,0,1,424.75,894.17Z"/><path class="cls-1" d="M544.74,878.77s-3.48-4.68,2.82-7,8.37-2.56,12.21-2.3,3.41-4.1,7.19,3.54,1,14.4.67,16.84a6.43,6.43,0,0,1-5.7,5.87c-3.84.46-7.66,1-10.92,3.47s-6,4.49-7.61,2.33-6.27-7-5-9.35,3-.58,3.11-5.08-1.35-5,.21-6.34A12.35,12.35,0,0,1,544.74,878.77Z"/><rect class="cls-2" x="86.54" y="670.22" width="305.26" height="225.58" rx="8"/><rect class="cls-5" x="100.38" y="684.67" width="277.56" height="196.68" rx="8"/><circle class="cls-2" cx="174.34" cy="761.64" r="50.07" transform="translate(-606.98 756.32) rotate(-76.72)"/><rect class="cls-2" x="239.16" y="719.99" width="116.3" height="11.24" rx="4"/><rect class="cls-2" x="239.16" y="741.26" width="86.2" height="11.24" rx="4"/><rect class="cls-2" x="239.16" y="774.98" width="86.2" height="11.24" rx="4"/><rect class="cls-2" x="118.25" y="828.77" width="241.23" height="8.83" rx="4"/><rect class="cls-2" x="118.25" y="852.85" width="241.23" height="8.83" rx="4"/><rect class="cls-6" x="847.3" y="675.72" width="99.34" height="16.45" rx="5"/><path class="cls-7" d="M853.4,692.17h86.08a0,0,0,0,1,0,0v56.34a5,5,0,0,1-5,5H858.4a5,5,0,0,1-5-5V692.17A0,0,0,0,1,853.4,692.17Z"/><path class="cls-8" d="M907.74,712.09H886.21a4.39,4.39,0,0,1-4.39-4.39h0a4.39,4.39,0,0,1,4.39-4.38h21.53a4.38,4.38,0,0,1,4.38,4.38h0A4.38,4.38,0,0,1,907.74,712.09Z"/><rect class="cls-9" x="853.4" y="692.17" width="86.08" height="4.45"/><rect class="cls-6" x="85.55" y="817.33" width="99.34" height="16.45" rx="5"/><path class="cls-9" d="M91.64,833.78h86.08a0,0,0,0,1,0,0v56.34a5,5,0,0,1-5,5H96.64a5,5,0,0,1-5-5V833.78A0,0,0,0,1,91.64,833.78Z"/><path class="cls-8" d="M146,853.7H124.45a4.39,4.39,0,0,1-4.38-4.39h0a4.38,4.38,0,0,1,4.38-4.38H146a4.39,4.39,0,0,1,4.39,4.38h0A4.4,4.4,0,0,1,146,853.7Z"/><rect class="cls-8" x="91.64" y="833.78" width="86.08" height="4.45"/><rect class="cls-6" x="805.96" y="753.26" width="182.03" height="30.14" rx="5"/><path class="cls-7" d="M817.12,783.4H974.85a0,0,0,0,1,0,0V890.8a5,5,0,0,1-5,5H822.12a5,5,0,0,1-5-5V783.4A0,0,0,0,1,817.12,783.4Z"/><path class="cls-8" d="M912.21,804H881.73a6.2,6.2,0,0,1-6.2-6.2h0a6.21,6.21,0,0,1,6.2-6.21h30.48a6.2,6.2,0,0,1,6.2,6.21h0A6.19,6.19,0,0,1,912.21,804Z"/><rect class="cls-8" x="913.43" y="843.14" width="46.16" height="38.26" rx="3"/><rect class="cls-9" x="817.12" y="783.4" width="157.73" height="8.15"/><rect class="cls-6" x="131.66" y="753.26" width="182.03" height="30.14" rx="5"/><path class="cls-7" d="M142.83,783.4H300.55a0,0,0,0,1,0,0V890.8a5,5,0,0,1-5,5H147.83a5,5,0,0,1-5-5V783.4A0,0,0,0,1,142.83,783.4Z"/><path class="cls-8" d="M237.91,804H207.44a6.2,6.2,0,0,1-6.21-6.2h0a6.21,6.21,0,0,1,6.21-6.21h30.47a6.21,6.21,0,0,1,6.21,6.21h0A6.2,6.2,0,0,1,237.91,804Z"/><rect class="cls-8" x="239.14" y="843.14" width="46.16" height="38.26" rx="3"/><rect class="cls-9" x="142.83" y="783.4" width="157.73" height="8.15"/><polygon class="cls-10" points="767.94 631.56 726.47 895.8 740.23 895.8 792.33 634.07 767.94 631.56"/><polygon class="cls-10" points="877.44 631.56 918.92 895.8 905.15 895.8 853.06 634.07 877.44 631.56"/><path class="cls-10" d="M1002.41,337.84s-6.31,66.25,8.88,99.79,31.64,35.84,30.37,40.23-42.4,6.68-65.18,0S992.58,319.05,1002.41,337.84Z"/><path class="cls-2" d="M1002.68,335.53s-34.17,284.3-40.81,290.68c-2.19,2.1-28.47,1.75-62.75.12-12.08-.57-25.15-1.3-38.5-2.14-26.42-1.67-53.94-3.76-77.14-5.88-15.15-1.38-28.45-2.77-38.38-4.07-11.62-1.52-18.64-2.91-18.64-4,0-6.15,20.89-282.22,20.89-282.22S1003.61,327.86,1002.68,335.53Z"/><path class="cls-11" d="M990.75,335.53s-34.17,284.3-40.81,290.68c-2.19,2.1-28.48,1.75-62.75.12-12.08-.57-25.15-1.3-38.5-2.14-26.42-1.67-54-3.76-77.14-5.88-15.15-1.38-28.45-2.77-38.39-4.07-11.61-1.52-18.63-2.91-18.63-4,0-6.15,20.89-282.22,20.89-282.22S991.68,327.86,990.75,335.53Z"/><path class="cls-11" d="M967.1,313.38,961.75,353l-1.41,10.39S804.67,357.47,768,356.2c-23.63-.82-38.69-4.78-44.62-12.31-3.28-4.17-3.77-9.43-1.36-15.85,6.75-18,10.54-16.56,46-14.66S967.1,313.38,967.1,313.38Z"/><path class="cls-10" d="M961.75,353l-1.41,10.39S804.67,357.47,768,356.2c-23.63-.82-38.69-4.78-44.62-12.31Z"/><path class="cls-10" d="M990.75,335.53s-14.37,29.53-30.41,27.84S935.45,346.71,938.83,328,986.57,305.16,990.75,335.53Z"/><path class="cls-2" d="M843.24,390.25l-63.44-6.73-33.86,26.53L757,411.22,755.77,423h0l-2.41,22.66-8-.85a1.27,1.27,0,1,0-.26,2.52l8,.84-4.45,42a1.27,1.27,0,0,0,1.12,1.39h.14a1.28,1.28,0,0,0,1.26-1.14l4.45-41.95L789.39,452l-4.61,43.42-15.73-1.66a1.26,1.26,0,1,0-.27,2.51l15.74,1.67L783,512.4a1.28,1.28,0,0,0,1.13,1.4h.13a1.27,1.27,0,0,0,1.26-1.13L787,498.2l6.51.69h.13a1.26,1.26,0,0,0,.13-2.52l-6.5-.69,4.61-43.42,6.5.69h.13a1.27,1.27,0,0,0,.14-2.53l-6.51-.69,2.27-21.4,23.7,2.52-7.91,74.68a1.27,1.27,0,0,0,1.12,1.39h.14a1.26,1.26,0,0,0,1.25-1.13l7.92-74.67,15.52,1.64h.14a1.27,1.27,0,0,0,.13-2.53l-15.52-1.64L822,418.12l8.81.93H831a1.26,1.26,0,0,0,.13-2.52l-78.71-8.35,28.14-22.05L843,392.76a1.27,1.27,0,0,0,1.4-1.12A1.26,1.26,0,0,0,843.24,390.25ZM793.3,415.07l-1.11,10.49L758.42,422l1.11-10.49Zm-3.65,34.4-33.77-3.58,2.27-21.39,33.77,3.58Zm28.76-21.13-23.7-2.51,1.11-10.49,23.7,2.51Z"/><path class="cls-2" d="M938.12,395h0l-72.27-1.27a1.27,1.27,0,0,1,0-2.53h0l72.28,1.27a1.27,1.27,0,0,1,0,2.53Z"/><path class="cls-2" d="M938.12,420h0l-72.27-1.27a1.27,1.27,0,0,1,0-2.53h0l72.28,1.27a1.27,1.27,0,0,1,0,2.53Z"/><path class="cls-2" d="M932.21,445.51h0l-72.27-1.27a1.27,1.27,0,0,1,0-2.53h0L932.23,443a1.27,1.27,0,0,1,0,2.53Z"/><path class="cls-2" d="M913.21,475.18h0l-72.27-1.26a1.28,1.28,0,0,1-1.25-1.29,1.25,1.25,0,0,1,1.29-1.24l72.28,1.26a1.27,1.27,0,0,1,0,2.53Z"/><path class="cls-2" d="M861.81,520.18a2.49,2.49,0,0,1-2-1l-12.25-16.84a1.27,1.27,0,1,1,2.05-1.49l12.25,16.84,9.91-20.75a2.54,2.54,0,0,1,2.36-1.44l33.56,1a1.27,1.27,0,0,1,0,2.53h0L874,498l-9.91,20.75a2.49,2.49,0,0,1-2.05,1.43Z"/><path class="cls-2" d="M909.93,515.07H886.51a1.27,1.27,0,0,1,0-2.53h23.42a1.27,1.27,0,0,1,0,2.53Z"/><path class="cls-2" d="M906.55,538.67h0l-41.14-1.9a1.25,1.25,0,0,1-1.2-1.32,1.28,1.28,0,0,1,1.32-1.21l41.13,1.9a1.27,1.27,0,0,1-.06,2.53Z"/><path class="cls-2" d="M931.45,559.55h-.07L896,557.65a1.26,1.26,0,1,1,.14-2.52L931.51,557a1.27,1.27,0,0,1-.06,2.53Z"/><path class="cls-2" d="M933,508.5a118.83,118.83,0,0,0-12.64-4.91C923.68,501,931,499.9,928,494.4c-.88-1.63-2.67-3.86-4.7-3.91s-3.09,1.49-3.31,3.29c-.15,1.21,1.75,1.2,1.9,0,1.27-1.26,2.28-1.36,3-.29q2.67,2,.4,5.28a12,12,0,0,1-3.06,1.47,10.46,10.46,0,0,0-4.39,3.31,1,1,0,0,0,.57,1.39,112.43,112.43,0,0,1,13.65,5.2C933.18,510.65,934.15,509,933,508.5Z"/><path class="cls-6" d="M887.06,604.77c-.12-.82-.25-1.63-.4-2.44a76.68,76.68,0,0,0-8.11-23.15c-.41-.75-.83-1.49-1.26-2.23a78,78,0,0,0-14.75-18.17c-.63-.57-1.27-1.13-1.92-1.69a77.25,77.25,0,0,0-19.85-12.27c-.78-.34-1.56-.66-2.35-1a76.76,76.76,0,0,0-24.55-5.11c-.85,0-1.7-.07-2.56-.07h-.8a76.68,76.68,0,0,0-21.77,3.12c-.84.23-1.66.49-2.48.76a76.56,76.56,0,0,0-16.17,7.51c-.72.44-1.44.9-2.15,1.37a77.55,77.55,0,0,0-15.25,13.21c-.57.63-1.12,1.27-1.66,1.92a77.47,77.47,0,0,0-9.7,14.81c-.38.75-.75,1.52-1.1,2.28h0a77,77,0,0,0-7.07,30.58c9.94,1.3,23.24,2.69,38.39,4.07,0-.75-.07-1.51-.07-2.27a39,39,0,1,1,77.21,8.15c13.35.84,26.42,1.57,38.5,2.14a77.55,77.55,0,0,0,.68-10.29A79,79,0,0,0,887.06,604.77Z"/><path class="cls-7" d="M757.42,593.36a1.27,1.27,0,0,1-1.06.58,1.24,1.24,0,0,1-.69-.21l-15.44-10.07h0c.35-.76.72-1.53,1.1-2.28l.13.07,15.59,10.17A1.25,1.25,0,0,1,757.42,593.36Z"/><path class="cls-7" d="M761.7,575a1.25,1.25,0,0,1-.91.4,1.24,1.24,0,0,1-.87-.36L751,566.56c.54-.65,1.09-1.29,1.66-1.92l9,8.55A1.26,1.26,0,0,1,761.7,575Z"/><path class="cls-7" d="M781.66,565.36a1.24,1.24,0,0,1-.83.31,1.27,1.27,0,0,1-1-.44l-11.82-13.66a1.34,1.34,0,0,1-.11-.14c.71-.47,1.43-.93,2.15-1.37l11.69,13.51A1.26,1.26,0,0,1,781.66,565.36Z"/><path class="cls-7" d="M791.7,549.36a1.27,1.27,0,0,1-1.73-.46l-3.69-6.32,0,0c.82-.27,1.64-.53,2.48-.76l3.42,5.84A1.28,1.28,0,0,1,791.7,549.36Z"/><path class="cls-7" d="M815,555.11l-.19,0a1.27,1.27,0,0,1-1.25-1.09l-2.22-15.18c0-.07,0-.12,0-.18.86,0,1.71,0,2.56.07l2.18,14.93A1.26,1.26,0,0,1,815,555.11Z"/><path class="cls-7" d="M840.77,544.82l-4.28,8.55a1.25,1.25,0,0,1-1.13.7,1.35,1.35,0,0,1-.56-.13,1.27,1.27,0,0,1-.57-1.7l4.19-8.38C839.21,544.16,840,544.48,840.77,544.82Z"/><path class="cls-7" d="M862.54,558.78l-8.84,13.29a1.29,1.29,0,0,1-1.06.56,1.24,1.24,0,0,1-.69-.21,1.26,1.26,0,0,1-.36-1.75l9-13.51,0-.07C861.27,557.65,861.91,558.21,862.54,558.78Z"/><path class="cls-7" d="M878.55,579.18l-6.2,5.18a1.26,1.26,0,0,1-.81.29,1.29,1.29,0,0,1-1-.45,1.28,1.28,0,0,1,.16-1.78l6.44-5.38.13-.09C877.72,577.69,878.14,578.43,878.55,579.18Z"/><path class="cls-7" d="M887.06,604.77a1.25,1.25,0,0,1-.26.07l-15.08,2.22h-.19a1.27,1.27,0,0,1-.17-2.52l15.08-2.22h.22C886.81,603.14,886.94,604,887.06,604.77Z"/><path class="cls-4" d="M893.29,620s23.81,1.58,23.81,3.27-7.8,21.94-8.86,23-23,1.9-23,1.9Z"/><path class="cls-2" d="M894.8,620.73c-.27,3.79-5.75,27-9.55,27.42-1,.11-10.36-.2-23.57-.83-36.22-1.74-101.6-5.92-104.69-10.56-4.22-6.33-8-26.68-4.22-26.5l13.94.67C802.53,612.74,895,617.67,894.8,620.73Z"/><path class="cls-12" d="M861.68,647.32c-36.22-1.74-101.6-5.92-104.69-10.56-4.22-6.33-8-26.68-4.22-26.5l13.94.67c-.19,8,1.82,18.82,12.93,23.14C798.24,641.3,861.68,647.32,861.68,647.32Z"/><rect class="cls-2" x="436.57" y="291.44" width="104.41" height="155.97" rx="4"/><rect class="cls-5" x="443.06" y="301.13" width="91.45" height="136.6" rx="4"/><rect class="cls-2" x="470.58" y="342.25" width="36.39" height="54.36" rx="4"/><rect class="cls-4" x="45.32" y="283.64" width="342.63" height="10.33" rx="4"/><rect class="cls-4" x="45.32" y="635.07" width="342.63" height="10.33" rx="4"/><rect class="cls-2" x="55.45" y="293.97" width="321.18" height="341.1"/><path class="cls-5" d="M82.34,335.74s4.12,43.88,6.44,43.88,41.13-2.32,41.76-4.64-4.64-39.87-5.69-41.56S93.63,332.37,82.34,335.74Z"/><path class="cls-4" d="M107.76,341.86a3.17,3.17,0,1,1-3.16-3.17A3.15,3.15,0,0,1,107.76,341.86Z"/><path class="cls-4" d="M94.58,566.49s4.11,43.88,6.43,43.88,41.14-2.32,41.77-4.64-4.64-39.87-5.7-41.56S105.86,563.12,94.58,566.49Z"/><path class="cls-5" d="M120,572.61a3.17,3.17,0,1,1-3.17-3.17A3.16,3.16,0,0,1,120,572.61Z"/><path class="cls-5" d="M181.86,345a3.17,3.17,0,1,1-3.17-3.16A3.17,3.17,0,0,1,181.86,345Z"/><path class="cls-13" d="M178.69,348.69a3.67,3.67,0,1,1,3.67-3.67A3.67,3.67,0,0,1,178.69,348.69Zm0-6.33a2.67,2.67,0,1,0,2.67,2.66A2.67,2.67,0,0,0,178.69,342.36Z"/><path class="cls-4" d="M159.44,332.52s-2.11,21.36-1.9,33-1.47,11.82,1.9,12.87,31.86,5.06,32.91,3.59,6.12-42.82,4-44.51S159.57,331.19,159.44,332.52Z"/><path class="cls-5" d="M312.38,400.92H263.86s-6.61-36.56-5.61-59.06c.1-2.27.28-4.4.55-6.33h50.62s-.31,2.39-.62,6.33c-.67,8.25-1.37,23.35.62,37.76Z"/><path class="cls-4" d="M309.42,335.53s-.31,2.39-.62,6.33H258.25c.1-2.27.28-4.4.55-6.33Z"/><path class="cls-4" d="M286.93,352.13a3.94,3.94,0,1,1-3.94-3.94A3.94,3.94,0,0,1,286.93,352.13Z"/><path class="cls-5" d="M243.19,419.82V535.36a3.29,3.29,0,0,1-3.28,3.29H85.63a3.29,3.29,0,0,1-3.29-3.29V424.74a8.2,8.2,0,0,1,7.79-8.19l.42,0H239.91l.28,0a3.24,3.24,0,0,1,2.26,1.19,3.46,3.46,0,0,1,.32.46A3.28,3.28,0,0,1,243.19,419.82Z"/><path class="cls-2" d="M243.19,419.82v23.4H82.34V426.91c0-5.55,3.45-10.09,7.79-10.36l.42,0H239.91l.28,0a3.13,3.13,0,0,1,2.26,1.51l.32.14A3.28,3.28,0,0,1,243.19,419.82Z"/><path class="cls-5" d="M253.53,437.64H100s1.74-12.09-4.92-18.51a9.85,9.85,0,0,0-3-2H238.54a12.59,12.59,0,0,1,3.91.59C252.85,421.1,253.53,437.64,253.53,437.64Z"/><path class="cls-4" d="M159.44,520.11H104.81a6.34,6.34,0,0,1-6.33-6.33V456.19a1.27,1.27,0,1,1,2.53,0v57.59a3.81,3.81,0,0,0,3.8,3.8h54.63a1.27,1.27,0,1,1,0,2.53Z"/><path class="cls-4" d="M124.21,515.36a1.27,1.27,0,0,1-1.26-1.27,17.32,17.32,0,0,0-17.3-17.29,1.27,1.27,0,0,1,0-2.53,19.84,19.84,0,0,1,19.83,19.82A1.27,1.27,0,0,1,124.21,515.36Z"/><path class="cls-4" d="M110.93,491.63a1.21,1.21,0,0,1-.75-.25,1.25,1.25,0,0,1-.27-1.77l23-31.22a1.27,1.27,0,1,1,2,1.5l-23,31.22A1.27,1.27,0,0,1,110.93,491.63Z"/><path class="cls-4" d="M122.42,500.07a1.26,1.26,0,0,1-1-.51,1.27,1.27,0,0,1,.26-1.78l8.54-6.33a1.27,1.27,0,1,1,1.51,2l-8.54,6.34A1.26,1.26,0,0,1,122.42,500.07Z"/><path class="cls-4" d="M162.77,508.93H129.59a1.27,1.27,0,0,1,0-2.53h33.18a1.27,1.27,0,0,1,0,2.53Z"/><circle class="cls-2" cx="154.59" cy="473.49" r="6.96"/><path class="cls-2" d="M189.45,500.7a7,7,0,1,1-7-7A7,7,0,0,1,189.45,500.7Z"/><path class="cls-2" d="M210.81,500.7a7,7,0,1,1-7-7A7,7,0,0,1,210.81,500.7Z"/><rect class="cls-2" x="168.09" y="449.02" width="57.59" height="4.85" rx="2"/><rect class="cls-2" x="168.09" y="459.67" width="28.79" height="4.85" rx="2"/><path class="cls-4" d="M229.27,530.23H101.64a1.9,1.9,0,0,1-1.89-1.9h0a1.9,1.9,0,0,1,1.89-1.9H229.27a1.9,1.9,0,0,1,1.89,1.9h0A1.9,1.9,0,0,1,229.27,530.23Z"/><rect class="cls-4" x="210.81" y="462.1" width="17.4" height="22.57" rx="2"/><rect class="cls-4" x="275.04" y="432.35" width="81.85" height="101.63" rx="7"/><path class="cls-10" d="M324.05,877.29a.67.67,0,0,1-.28-.06.64.64,0,0,1-.3-.85s1.58-3.78-3.21-12.77c-1.2-2.24-3.48-4.16-6.65-6.81-9.85-8.27-26.33-22.11-39.42-69.68-9-32.69.72-69.76,10.45-95.1a288.11,288.11,0,0,1,23.48-47.59.63.63,0,1,1,1.06.69,287.17,287.17,0,0,0-23.37,47.38c-9.65,25.15-19.3,61.93-10.4,94.28,13,47.19,29.28,60.87,39,69.05,3.15,2.64,5.63,4.73,6.94,7.19,5.16,9.66,3.33,13.74,3.25,13.91A.63.63,0,0,1,324.05,877.29Z"/><path class="cls-10" d="M360.12,877.29h0a.63.63,0,0,1-.61-.65c.37-13.8-2.22-21.8-5-30.26-3.88-11.93-8.28-25.46-6.07-58.21,3.77-55.82,64.07-158.25,64.67-159.28a.63.63,0,1,1,1.09.65c-.6,1-60.75,103.19-64.5,158.72-2.19,32.51,2.17,45.91,6,57.73,2.79,8.57,5.42,16.66,5,30.68A.63.63,0,0,1,360.12,877.29Z"/><path class="cls-10" d="M313.15,582.74l-30.52-88a17.06,17.06,0,0,1,5.71-19.14l90.71-69.89a17.18,17.18,0,0,1,10.43-3.55h10.23v5.06H389.48a12.1,12.1,0,0,0-7.34,2.5l-90.71,69.89a12,12,0,0,0-4,13.47l30.52,88Z"/><rect class="cls-4" x="216.18" y="699.98" width="513.92" height="12.34"/><path class="cls-2" d="M769,606.54V614a4.37,4.37,0,0,1-4.37,4.37H185.83a4.37,4.37,0,0,1-4.37-4.37v-7.44a4.37,4.37,0,0,1,3.2-4.22,4.59,4.59,0,0,1,1.17-.16H764.64a4.53,4.53,0,0,1,1.17.16A4.37,4.37,0,0,1,769,606.54Z"/><path class="cls-5" d="M769,606.54v1.59H181.46v-1.59a4.37,4.37,0,0,1,3.2-4.22H765.81A4.37,4.37,0,0,1,769,606.54Z"/><path class="cls-4" d="M751.88,618.35l-3.54,7.86-7,15.58a5,5,0,0,1-4.61,3H210.91a5,5,0,0,1-4.61-3l-7-15.58-3.54-7.86Z"/><polygon class="cls-10" points="751.88 618.35 748.34 626.21 199.27 626.21 195.73 618.35 751.88 618.35"/><path class="cls-10" d="M236.23,644.77l-28,246.54a5.06,5.06,0,0,1-5,4.49h-2a5.06,5.06,0,0,1-5-5.45l19-245.58Z"/><path class="cls-10" d="M713.93,644.77l28,246.54a5.06,5.06,0,0,0,5,4.49h2a5.06,5.06,0,0,0,5-5.45L735,644.77Z"/><path class="cls-4" d="M354.25,602.16l-20-110a5.07,5.07,0,0,1,5-6H475a5.06,5.06,0,0,1,5,4l23.79,112Z"/><path class="cls-2" d="M359.63,602.16l-20-110a5.07,5.07,0,0,1,5-6H480.41a5.07,5.07,0,0,1,4.95,4l23.79,112Z"/><path class="cls-4" d="M527.76,593.3H361.32a4.43,4.43,0,0,0-4.43,4.43h0a4.43,4.43,0,0,0,4.43,4.43H527.76a4.43,4.43,0,0,0,4.43-4.43h0A4.43,4.43,0,0,0,527.76,593.3Z"/><path class="cls-5" d="M409.55,503.35l16.62,76.57a2.53,2.53,0,0,0,2.48,2h61.87a2.54,2.54,0,0,0,2.47-3.09l-17.31-76.57a2.53,2.53,0,0,0-2.47-2H412A2.53,2.53,0,0,0,409.55,503.35Z"/><path class="cls-4" d="M399.16,525.75H358.37a2.53,2.53,0,0,1-2.48-2l-4.27-20.41a2.53,2.53,0,0,1,2.47-3.05h40.72a2.53,2.53,0,0,1,2.48,2l4.35,20.41A2.54,2.54,0,0,1,399.16,525.75Z"/><path class="cls-5" d="M402.9,543.31H362a2.54,2.54,0,0,1-2.48-2l-.89-4.27a2.53,2.53,0,0,1,2.48-3H402a2.52,2.52,0,0,1,2.47,2l.91,4.27A2.53,2.53,0,0,1,402.9,543.31Z"/><path class="cls-5" d="M411.14,581.91h-41a2.54,2.54,0,0,1-2.48-2l-5.36-25.63a2.53,2.53,0,0,1,2.48-3h40.91a2.54,2.54,0,0,1,2.48,2l5.46,25.64A2.52,2.52,0,0,1,411.14,581.91Z"/><path class="cls-4" d="M331.68,602.16H299.41a10.65,10.65,0,0,1-10.66-10.65h0a10.65,10.65,0,0,1,10.66-10.65h32.27a10.65,10.65,0,0,1,10.65,10.65h0A10.65,10.65,0,0,1,331.68,602.16Z"/><circle class="cls-2" cx="288.59" cy="486.62" r="8.91"/><path class="cls-2" d="M392,405.19a5.75,5.75,0,1,1-5.75-5.74A5.74,5.74,0,0,1,392,405.19Z"/><path class="cls-7" d="M475.33,411.63V435.1a5.06,5.06,0,0,1-5.06,5.06h-67.4a5.07,5.07,0,0,1-5.06-5.06V411.63c0-.23,0-.46,0-.69a38.76,38.76,0,0,1,77.51,0Z"/><path class="cls-5" d="M397.81,410.94h0c0,.23,0,.46,0,.69Z"/><path class="cls-13" d="M398.31,411.63h-1v-1.19h1V411c0,.21,0,.43,0,.65Z"/><path class="cls-5" d="M475.33,410.94v0Z"/><path class="cls-13" d="M475.83,411.63l-1,0V411l0-.51h1Z"/><path class="cls-10" d="M394.65,751.2c-10.59,0-19.79-4.14-27.37-12.29-17.1-18.42-23.14-54.66-25.2-81.81a416.72,416.72,0,0,1-.38-55,.65.65,0,0,1,.68-.59.63.63,0,0,1,.58.68,418.28,418.28,0,0,0,.38,54.81c2.05,27,8,62.88,24.87,81,7.33,7.89,16.22,11.89,26.44,11.89s19.12-4,26.45-11.89C438,719.89,444,684,446.08,657a414.33,414.33,0,0,0,.46-54.79.64.64,0,0,1,.59-.68.63.63,0,0,1,.67.59,416,416,0,0,1-.45,55c-2.1,27.16-8.19,63.4-25.32,81.81C414.44,747.06,405.23,751.2,394.65,751.2Z"/><rect class="cls-1" x="298.77" y="883.24" width="89.23" height="12.56" rx="3"/><rect class="cls-4" x="316.25" y="876.66" width="15.58" height="6.58"/><rect class="cls-4" x="352.33" y="876.66" width="15.58" height="6.58"/><path class="cls-14" d="M655,333.54s-4.18-.82-13.76-9.31a25.72,25.72,0,0,1-6.18-9.4c-.17-18.7-5.08-46-26.59-43,0,0-11.4-4.95-26.69-1-10.27,2.66-19.62,15-24.94,28.32-6.59,2.07-17.73,8.71-23.17,29.9-.25.95-.47,1.9-.68,2.83a30.22,30.22,0,0,0-21.74,14c-3.28,5.42-6.35,14.64-2.35,27.76,2.68,8.81,6.63,16.15,10.12,22.63,4.92,9.16,9.28,17.27,8.67,26.78a37.25,37.25,0,0,1-7.34,11.67c-2.51,2.59-4,6.82-4,11.45-3.53,6.85-6.88,17.46-6.57,32.85.62,30.93,10,40.65,10.43,41.05a.6.6,0,0,0,.43.17.62.62,0,0,0,.45-.2.7.7,0,0,0,0-.94c-.09-.09-9.43-9.73-10-40.11-.27-13.56,2.43-23.37,5.5-30.09,1.39,11.4,11.72,23.84,37,20.54,37.85-4.95,59.57-57.73,65.46-73.9s-2.17-19.79,0-34.31a28.55,28.55,0,0,1,.91-4c1.51,7.31,5.06,10.54,8.13,10.54h.3c2.68-.19,5.94-3.09,6.28-10.66.46-10,.24-25.89.1-33.61.11-.91.19-1.85.24-2.83s.06-1.82.08-2.79a24.44,24.44,0,0,0,5.39,7.37c10,8.81,14.2,9.57,14.37,9.6h.09a.62.62,0,0,0,.61-.56A.64.64,0,0,0,655,333.54Zm-98.77-32.78a61.64,61.64,0,0,0-3.84,16.46c-4.27,6.43-10.41,13.09-18.07,14.47.17-.76.35-1.51.55-2.27C539.85,309.8,549.82,303.06,556.18,300.76ZM528.9,419.58c-.47-8.36-4.44-15.74-8.86-23.95-3.45-6.42-7.37-13.7-10-22.38-3-10-2.28-19.22,2.21-26.65a28.94,28.94,0,0,1,20.41-13.32,82.25,82.25,0,0,0-1.74,21.06c-7,6.47-10.58,16.55-3.52,32.63A46.32,46.32,0,0,1,528.9,419.58Zm5.32-67.91c-.73.51-1.43,1.05-2.11,1.62A82.05,82.05,0,0,1,534,333.07c7.65-1.13,13.78-7.08,18.2-13.25C550.88,337,542.93,345.58,534.22,351.67ZM633.34,357c-.25,5.52-2.26,9.21-5.12,9.41-2.65.18-6.08-3.05-7.34-10.56l-.18-1.07c3.36-8.62,9.94-15.46,12.83-25.6C633.64,337.52,633.7,349.14,633.34,357Z"/><path class="cls-15" d="M629.2,326.11c-1.29,8.08-1.93,11-1.66,13.7h0c0,.65-.35,22.52-11.86,28.55a1.62,1.62,0,0,0-1.83.79c-1.09,2,.62,12.87,2.32,16.33a15.44,15.44,0,0,1,1.79,5.59s-16.06,2.8-21.34,0-12.25-13.51-12.25-13.51.15-9.73,0-12.53-4.64-5.45-5.34-7.1-2.11-13.19-2.11-13.19-7-1.49-9-7.1,1.62-10.39,4.15-12,4.08,5.12,4.85,2.81-1.22-6.27,2.11-6.27,18.68.82,30.32-4.13A37.56,37.56,0,0,0,626.1,304.5S630.76,316.38,629.2,326.11Z"/><path class="cls-8" d="M615.68,368.37s-14.4-1.35-19.52-2.51a90.88,90.88,0,0,1-10.39-3.13s23.11,19,24,17.48S610.69,367.74,615.68,368.37Z"/><path class="cls-5" d="M626.28,318.13c-3.66,0-6.72,4.27-7.55,10a9.25,9.25,0,0,0-2.1-.94,2.9,2.9,0,0,0-2.12.36c-.74-6.76-4.54-11.92-9.11-11.92-4.34,0-8,4.66-9,10.93H575.11v1.32h21.14c-.06.69-.1,1.39-.1,2.1,0,7.91,4.15,14.35,9.25,14.35s9.25-6.44,9.25-14.35c0-.33,0-.65,0-1a2.23,2.23,0,0,1,1.71-.54,8.81,8.81,0,0,1,2.24,1.09c-.05.55-.08,1.11-.08,1.68,0,7.22,3.5,13.09,7.79,13.09s7.78-5.87,7.78-13.09S630.57,318.13,626.28,318.13ZM605.4,343c-4.41,0-8-5.85-8-13s3.59-13,8-13,8,5.84,8,13S609.82,343,605.4,343Zm20.88,0c-3.61,0-6.54-5.28-6.54-11.77s2.93-11.77,6.54-11.77,6.54,5.28,6.54,11.77S629.89,343,626.28,343Z"/><path class="cls-8" d="M615.68,347.22a.58.58,0,0,1-.48-.25.68.68,0,0,1,.09-.92,10.19,10.19,0,0,0,2.37-2.58c0-.19-.62-.83-1-1.17a12.74,12.74,0,0,1-1.5-1.69c-1.32-1.86.47-5.36.67-5.75a.61.61,0,0,1,.85-.26.69.69,0,0,1,.24.9c-.63,1.2-1.4,3.43-.77,4.31a11.27,11.27,0,0,0,1.36,1.52c.8.79,1.49,1.48,1.34,2.38s-2,2.7-2.81,3.37A.64.64,0,0,1,615.68,347.22Z"/><path class="cls-8" d="M613.45,357.2a12.32,12.32,0,0,1-4-.69,13.54,13.54,0,0,1-5.36-4,.69.69,0,0,1,.08-.93.59.59,0,0,1,.87.08,12.39,12.39,0,0,0,4.79,3.59,9.94,9.94,0,0,0,4.66.56.63.63,0,0,1,.72.53.66.66,0,0,1-.5.77A7.37,7.37,0,0,1,613.45,357.2Z"/><ellipse class="cls-14" cx="605.49" cy="329.49" rx="1.53" ry="3.3"/><path class="cls-14" d="M625.71,331.22c0,1.82-.68,3.3-1.52,3.3s-1.53-1.48-1.53-3.3.69-3.3,1.53-3.3S625.71,329.4,625.71,331.22Z"/><path class="cls-15" d="M677,521.92H654.72s-2.41-12.45-5.25-28.25c6-.79,18.74-5.79,18.74-5.79C671.77,502.1,677,521.92,677,521.92Z"/><path class="cls-2" d="M668.21,487.88s-12.69,5-18.74,5.79c-.66-3.69-1.34-7.55-2-11.49-2-11.33-3.9-23.2-5.21-32.85-3.73-27.38-11.82-67.26-11.82-67.26s11.82.07,16.58,8.2,10.75,50.32,12.72,54.74c1.76,4,3.27,19.25,6,32.19.3,1.49.63,2.94,1,4.35C667.1,483.44,667.64,485.59,668.21,487.88Z"/><path class="cls-5" d="M668.21,487.88s-12.69,5-18.74,5.79c-1.45.19-2.51.13-2.93-.29-2.12-2.16-5-8.37.91-11.2l.22-.11s12.14-6.44,18-4.87a4.42,4.42,0,0,1,1.46.66C672.12,481.34,668.21,487.88,668.21,487.88Z"/><path class="cls-16" d="M647.61,813.87s-4.75,15.83-6.2,24-1,16,3.1,22.87,1.86,9.68,3.1,12.76,4.45,11.22,9,14.07,6.05,5.06,5,6.38-16,.44-21-5.28-8.34-14.29-15.38-18.47-13.86-10-12.41-17.23,7.86-7.62,10.14-12.46,8.07-32.77,8.07-32.77Z"/><path class="cls-17" d="M727.87,577.66C727,580.2,715.2,619.52,703.22,659c-9.78,32.23-19.66,64.56-23.75,77-9.1,27.71-25.65,75.57-29.37,74.07s-19-7.21-19-11.61,11.17-81.81,21.92-128,20.3-66.37,6.21-94.13c-10.32-20.32-19.76-30.63-20-39.39-.09-3.22,1.06-6.22,3.86-9.44,10.44-12,54.2-12.75,64.33-2,0,0,25.45,16.5,25.76,27.38S729.42,573,727.87,577.66Z"/><path class="cls-18" d="M703.22,659c-9.78,32.23-19.66,64.56-23.75,77-9.1,27.71-25.65,75.57-29.37,74.07s-19-7.21-19-11.61,11.17-81.81,21.92-128,20.3-66.37,6.21-94.13c-10.32-20.32-19.76-30.63-20-39.39,7.71-6.67,14-8.36,17.46-4.82,0,0,30.88,24.41,35.22,60.7C695.13,619.94,696,644.46,703.22,659Z"/><path class="cls-15" d="M663.19,816.71s2.61,25.37,1.29,32.33-3.53,18.63.44,21.59,9.12-.15,11.13,4.31,8.68,12.69,14.17,16.62,15.17,5.5,17.27,3.11,3-1.81,4.43-4.37,2.39-6.61-3-9.44-13.56-15.35-15.45-20.26-5.2-4.84-5.85-10.52-3.67-17.77-2.38-33.11S663.19,816.71,663.19,816.71Z"/><path class="cls-17" d="M585.77,601.41h44.65s3.13,57.62,6,82.7,12.41,59.82,16.14,80,6.62,47.51,7.86,47.51,26.06-.88,26.06-6.16-1.24-144.72-2.07-171.11-.41-46.19-4.13-56.3-17.38-30.35-17.38-30.35-19.86-26.83-47.16,0S585.14,585.13,585.77,601.41Z"/><path class="cls-2" d="M633.42,412.61c-6.7,16.59-22.06,29-39.28,17.91S567.83,383.35,574,380.21a11.09,11.09,0,0,0,5-.94h0a4.33,4.33,0,0,0,.62-.36,3.94,3.94,0,0,0,.53-.38c2.33-1.94,4.65-3.09,5.59-3.09s18.61,9.24,18.3,10.88,2.64.33,4-1.48,8.22-5.94,9.3-5.61a41.06,41.06,0,0,1,4.66,2.48S640.13,396,633.42,412.61Z"/><path class="cls-11" d="M707.39,525.53s-9.87-1.45-15.52-.87a46.18,46.18,0,0,0-4.81,1.2,2.91,2.91,0,0,1-.61.2,30.43,30.43,0,0,0-6.16,2.77c-8.68,5.28-14.89,11.44-15.71,12.76s3.72,5.27-1.66,6.16a18.46,18.46,0,0,1-1.86.16c-9.19.47-40.79-.35-50.68,12.59-10.76,14.08-24.61,40.91-24.61,40.91H565.29s-10.35-5.28-19-30.79S557,523.55,557,523.55s5.37-11.43,5-14.51-3.72-8.36-4.14-19.07,8.69-43,10.34-68.9-7.24-40.36-7.24-40.36,9.31-3,11.79-2,7.45,19.13,15.83,27,14.58,11.22,25.75,9.9,15.82-8.58,16.14-15.84-8.38-18.14-8.38-18.14h7.44c1.87,0,5,5.93,7.76,11.87s17.07,19.47,22,38.93c2.83,11.1-1.1,17.8-4.54,24.39l0,.07c-.47.9-.94,1.81-1.37,2.72a24.22,24.22,0,0,0-2.69,10c-.23,1.59-.41,3.34-.51,5.23-.62,12,0,14.85.93,18.15s2,5.72,2.11,6.89v0c.36,5.46.82,9.56,1.87,10.85a4.19,4.19,0,0,0,1.24.86l-1.24-.86S680.55,514,689.4,516C699.64,518.28,707.39,525.53,707.39,525.53Z"/><path class="cls-2" d="M560.94,380.71s-10.26-4-16.92,10.55-9.14,47.84-10.69,60.37-3.41,44.21,0,47.84,5.58-15.5,14.27-22.76,13-6.88,13.82-11.25S577.39,397.53,560.94,380.71Z"/><path class="cls-5" d="M654.72,457c-.47.9-.94,1.81-1.37,2.72A19,19,0,0,1,654.72,457Z"/><path class="cls-13" d="M654.72,457a19,19,0,0,0-1.37,2.72c.43-.91.9-1.82,1.37-2.72Z"/><path class="cls-10" d="M560.24,510.84a5.69,5.69,0,0,1-.17,1.22c-.3,1.07-.61,2.14-.87,3.23-.21.87-1.32,4.7.2,5,1.86.33,34.59-2,52.89-4.94s43.75-3,43.6-5.45-.87-7.47-1.85-9.07-12.42-1.32-33.68,1.15l-17,2-18,2.14c-5,.6-10,1.2-15,1.83l-4.58.55a15.3,15.3,0,0,1-4.47.31c-.8-.12-1,.58-1.06,1.3Z"/><path class="cls-7" d="M671,445l-22.73-1.16a5.93,5.93,0,0,1-5.61-6.21l1.61-35.86a1.8,1.8,0,0,1,1.89-1.73l30.86,1.57a1.83,1.83,0,0,1,1.73,1.91l-1.61,35.86A5.87,5.87,0,0,1,671,445Z"/><path class="cls-7" d="M643.94,440.07a31.81,31.81,0,0,1-8.5-4.06c-4.18-2.92-8.17-19.06-4.5-27.43a8.09,8.09,0,0,1,4.93-4.66c4.77-1.62,10.43,1.11,10.67,1.23l-1.15,2s-4.95-2.37-8.68-1.1a5.74,5.74,0,0,0-3.47,3.36c-3.39,7.72.55,22.52,3.69,24.72a29.37,29.37,0,0,0,7.74,3.69Z"/><path class="cls-15" d="M534.26,499.92s6.41,11.32,11.79,12.42,8.07-4.39,9.1-5.06,24.41-18.26,35.58-30.57,21.1-24.42,25-28.59,11.58-7.26,16.75-9.9,5.17-1.1,6-4.84-2.07-9,0-11.44,2.48-4.17,1.24-6.37-7.44-3.74-10.13-2.86-5.59,5.71-10.55,10.11-9.1,12.32-11.38,13.64-19.24,13.2-29.79,20.45-17.22,12.44-17.22,12.44-13.45,6.78-20.4,18.45S534.26,499.92,534.26,499.92Z"/><path class="cls-5" d="M528.05,487.26s2.07-11.21,11.79-16.49,22.71-10.62,22.15-8-1.31,6.55-1.31,6.55-14.5,11.91-18.56,17.91-4.14,19.8-5.59,20-8.27-5.5-8.48-10.78S526.67,491.63,528.05,487.26Z"/><path class="cls-5" d="M622.07,381.7s-2.17,9.23-7,12.2-9.63-7-9.63-7-5,8.85-10.39,8.68-15.78-15.88-16-16.28h0l.62-.36,6.12-3.47c.93,0,18.61,9.24,18.3,10.88s2.64.33,4-1.48,8.22-5.94,9.3-5.61A41.06,41.06,0,0,1,622.07,381.7Z"/><path class="cls-2" d="M657.34,809.69s30.4-6.6,30.61-3.74,1.86,15.17,0,16.71-26.68,4.18-27.72,1.32S655.06,810.17,657.34,809.69Z"/><path class="cls-19" d="M627.45,798.86s30.15,7.82,29.19,10.5-4.4,14.57-6.71,15.12-25.81-8.33-25.59-11.38S625.2,798.26,627.45,798.86Z"/><path class="cls-10" d="M662.92,547.75a18.46,18.46,0,0,1-1.86.16c-16-15.85-45.09-22.16-45.09-22.16s15.1.22,28.33,5.94a196.08,196.08,0,0,1,20.28,9.9C663.75,542.91,668.3,546.86,662.92,547.75Z"/><path class="cls-10" d="M291.81,576.38v22.78h4.27v3H218.24a12.65,12.65,0,0,1-12.65-12.65V586a12.65,12.65,0,0,1,12.65-12.66h77.84v3Z"/><path class="cls-5" d="M291.81,576.38v22.78H221a13.42,13.42,0,0,1-9.31-3.53,9.92,9.92,0,0,1-1.55-1.9,8.5,8.5,0,0,1-1.36-4.58v-2.76a8.5,8.5,0,0,1,1.36-4.58,9.35,9.35,0,0,1,1.55-1.9,13.38,13.38,0,0,1,9.31-3.53Z"/><g class="cls-20"><path class="cls-4" d="M291.81,579.91v1.9h-81.7a9.35,9.35,0,0,1,1.55-1.9Z"/><rect class="cls-4" x="208.75" y="586.82" width="83.06" height="1.9"/><path class="cls-4" d="M291.81,593.73v1.9H211.66a9.92,9.92,0,0,1-1.55-1.9Z"/></g><rect class="cls-4" x="198.94" y="555.97" width="93.66" height="17.4" rx="3.16"/><rect class="cls-10" x="206.85" y="555.97" width="9.18" height="17.4"/><rect class="cls-10" x="219.93" y="555.97" width="2.74" height="17.4"/><path class="cls-10" d="M208.75,553.88v-7.56c0-1.2,1.42-2.17,3.17-2.17h87.33c1.74,0,3.16,1,3.16,2.17v7.56c0,1.2-1.42,2.17-3.16,2.17H211.92C210.17,556.05,208.75,555.08,208.75,553.88Z"/><rect class="cls-2" x="285.32" y="544.15" width="9.18" height="11.89"/><rect class="cls-2" x="278.68" y="544.15" width="2.74" height="11.89"/><rect class="cls-2" x="70.4" y="895.8" width="935.18" height="13.92" rx="6.96"/><path class="cls-2" d="M580.78,931.13H168.59a5.07,5.07,0,0,1-5.07-5.07h0a5.07,5.07,0,0,1,5.07-5.06H580.78a5.07,5.07,0,0,1,5.06,5.06h0A5.07,5.07,0,0,1,580.78,931.13Z"/><path class="cls-2" d="M907.09,931.13H615.71a5.06,5.06,0,0,1-5.06-5.07h0a5.06,5.06,0,0,1,5.06-5.06H907.09a5.07,5.07,0,0,1,5.07,5.06h0A5.07,5.07,0,0,1,907.09,931.13Z"/><path class="cls-21" d="M738.61,214.26s-11.8-19.23-6.4-32.19,15.95-11.48,14.89-5.78-1.89,8.86,5.49.21,20.88-13.08,19.83-7.81-11.39,8.23-.85,7.6,23.84,1.05,16.67,10.54-17.93,12-12.45,13.93,3.17,5.69-2.95,8-25.31-2.53-19.83,1.06S748,219.32,738.61,214.26Z"/><path class="cls-22" d="M730.19,206.91s-34.56,3.55-37.93-8.26,18.77-4.85,13.08-9.07-21.31-6.54-23.42-12,4.22-7.8,7.6-6.33-2.32-7-4.22-12.86,1.9-13.5,7.8-10.34,13.5,18.35,14.77,15,4.43-12,8-12.24,7.81,6.12,8.65,12.87,2.66,23.63,5.66,20.88,5.52-10.12,7.84-3.79S735.21,204.62,730.19,206.91Z"/><rect class="cls-2" x="666.1" y="254.97" width="279.71" height="14.34" rx="7.17"/><path class="cls-23" d="M684,269.31l18.23,13.14a2.54,2.54,0,0,0,4-2.05V269.31Z"/><path class="cls-23" d="M924.56,269.31l-18.23,13.14a2.53,2.53,0,0,1-4-2.05V269.31Z"/><path class="cls-24" d="M738.67,220.48h-3.46l-.11-.49c0-.08-2-8.2-8.59-20.41S704.28,180,704.12,179.92a.64.64,0,0,1,.54-1.15c.66.31,16.19,7.72,23,20.21a98.65,98.65,0,0,1,8.58,20.23H738c-.13-3.37.2-18,14.94-25.76,16.5-8.68,22.2-6.87,22.44-6.79a.63.63,0,0,1,.39.8.64.64,0,0,1-.81.39s-5.58-1.62-21.43,6.72-14.24,25-14.22,25.21l.07.7Z"/><rect class="cls-23" x="804.69" y="237.41" width="75.31" height="17.56" rx="6"/><rect class="cls-2" x="864.66" y="214.63" width="75.31" height="17.56" rx="6" transform="translate(422.25 -572.6) rotate(45)"/><rect class="cls-2" x="804.69" y="219.85" width="59.49" height="17.56" rx="6"/><rect class="cls-23" x="804.69" y="202.29" width="67.71" height="17.56" rx="6"/><path class="cls-6" d="M763.72,255H716.78a17.56,17.56,0,0,1-17.56-17.56h0a17.56,17.56,0,0,1,17.56-17.56h46.94a17.56,17.56,0,0,1,17.56,17.56h0A17.56,17.56,0,0,1,763.72,255Z"/><ellipse class="cls-2" cx="549.88" cy="191.32" rx="51.06" ry="49.96"/><ellipse class="cls-5" cx="549.88" cy="191.32" rx="41.3" ry="40.41"/><path class="cls-23" d="M573.36,213.76l-20.51-20.52a3.49,3.49,0,0,0,.57-1.92,3.54,3.54,0,0,0-2.8-3.46V167.63a.74.74,0,1,0-1.47,0v20.23a3.54,3.54,0,1,0,2.66,6.42l20.51,20.52a.77.77,0,0,0,.52.21.73.73,0,0,0,.52-1.25Z"/><rect class="cls-23" x="51.94" y="148.73" width="362.36" height="85.18" rx="20"/><rect class="cls-2" x="77.25" y="148.73" width="362.36" height="85.18" rx="20"/><rect class="cls-23" x="77.25" y="207.07" width="362.36" height="6.48"/><rect class="cls-5" x="377.68" y="167.35" width="29.31" height="10.13" rx="5"/><rect class="cls-25" x="77.25" y="219.12" width="362.36" height="3.56"/><path class="cls-21" d="M740.28,843.41s4.56-78.4,18.1-105.82,34.22-41,34.22-41-19.41,26.49-26.16,67.06,0,86.13,0,86.13Z"/><path class="cls-26" d="M750.22,867.06s-.31-20.4,8.16-63.1,57.84-58.78,57.84-58.78-36.7,35.13-39.23,62.08,3.37,42.55,3.37,42.55Z"/><path class="cls-26" d="M736.49,868.49s-13.08-66.15-7.6-115,60.33-85.35,60.33-85.35-41.91,50.91-44.37,100.25,13.53,89.8,13.53,89.8Z"/><path class="cls-22" d="M731,852.77s-3.66-50.63-25-78.9-24.32-31.22-24.32-31.22,31.64,18.42,49.36,48.87,21.23,62.93,21.23,62.93Z"/><path class="cls-6" d="M720.09,893l-14-57.33a4.43,4.43,0,0,1,4.31-5.48h84.25a4.42,4.42,0,0,1,4.32,5.4l-12.78,56.81a4.42,4.42,0,0,1-4.28,3.46l-57.48.52A4.43,4.43,0,0,1,720.09,893Z"/></g></svg>