<?xml version="1.0" standalone="no"?><!DOCTYPE svg PUBLIC "-//W3C//DTD SVG 1.1//EN" "http://www.w3.org/Graphics/SVG/1.1/DTD/svg11.dtd"><svg t="1649424272716" class="icon" viewBox="0 0 1491 1024" version="1.1" xmlns="http://www.w3.org/2000/svg" p-id="2371" xmlns:xlink="http://www.w3.org/1999/xlink" width="1491" height="1024"><defs><style type="text/css"></style></defs><path d="M1456.355556 699.103912c0 170.204827-138.466367 308.648621-308.671195 308.648621H355.735296C166.004318 1007.752533 11.646147 853.394362 11.646147 663.685958c0-138.917839 84.402632-262.711377 208.286464-316.120477C248.804226 207.090064 373.410412 101.129659 522.305776 101.129659c49.413576 0 97.35987 11.783411 140.294827 33.747508A344.044002 344.044002 0 0 1 929.194636 8.05877C1118.925614 8.05877 1273.283785 162.416941 1273.283785 352.147918c0 21.016007-1.941328 41.919146-5.778837 62.506256 110.858874 46.885335 188.850608 156.773544 188.850608 284.449738z m-308.422886-218.489724a252.598411 252.598411 0 0 0 35.147071-128.46627c0-140.227107-113.657998-253.885105-253.885105-253.885105-111.129757 0-205.351898 71.513116-239.754041 170.972329a218.038253 218.038253 0 0 0-167.134819-77.90144c-120.678383 0-218.512298 97.833915-218.512298 218.467151 0 1.805887 0.225736 3.521479 0.270883 5.304793-115.418738 23.882852-202.236744 126.073469-202.236744 248.580312 0 140.204533 113.657998 253.907679 253.907679 253.907679h791.949065c120.678383 0 218.489724-97.833915 218.489724-218.489725 0-120.610662-97.6759-218.376857-218.241415-218.489724z m-0.248309 382.080491H355.735296c-109.707621 0-198.963574-89.278527-198.963574-199.008721 0-93.883538 66.614648-175.82565 158.398842-194.832608a30.068015 30.068015 0 1 1 12.189736 58.871909c-64.041259 13.250694-110.475123 70.429584-110.475123 135.960699a139.008133 139.008133 0 0 0 138.850119 138.872692h791.949065a103.567606 103.567606 0 0 0 103.454738-103.454738 103.567606 103.567606 0 0 0-103.34187-103.432164 30.068015 30.068015 0 0 1 0.045147-60.136029h0.022574c90.091176 0.090294 163.410178 73.477018 163.410178 163.568193 0 90.18147-73.386723 163.590767-163.590767 163.590767z m-73.002972-395.105449a30.068015 30.068015 0 0 1-25.891902-45.327758 138.330926 138.330926 0 0 0 19.277841-70.113554 139.008133 139.008133 0 0 0-138.872692-138.850118 138.73725 138.73725 0 0 0-131.017084 93.499787 30.090588 30.090588 0 0 1-56.862859-19.639018 199.008721 199.008721 0 0 1 187.879943-133.996798c109.752768 0 199.008721 89.278527 199.008722 198.986147 0 35.169645-9.548626 69.978112-27.584921 100.63304a30.068015 30.068015 0 0 1-25.937048 14.808272z m-473.232626-124.267583a103.296723 103.296723 0 0 0-79.142987-36.952958c-56.29852 0-102.70981 45.779229-103.477312 102.032602a30.022867 30.022867 0 0 1-30.045441 29.66169h-0.428898a30.068015 30.068015 0 0 1-29.639116-30.474339c1.218974-88.962497 74.583123-161.378556 163.590767-161.378556 48.307471 0 93.906112 21.309464 125.125379 58.37529a30.068015 30.068015 0 0 1-45.982392 38.736271z" p-id="2372" fill="#ffffff"></path></svg>