<svg width="330" height="90" xmlns="http://www.w3.org/2000/svg" preserveAspectRatio="none" version="1.1" class="svg-canvas">
 <defs>
  <pattern id="wm_tile" x="0" y="0" width="20%" height="27%" patternunits="objectBoundingBox">
   <g id="wm_lm" fill="#cccccc">
    <text font-size="15" transform="rotate(-390 -188.00000000000017,-323) " y="-323" x="-188" id="svg_5">
     <tspan x="187.490979" opacity="0.3" y="378.245789" id="svg_6">copyright © copyright ©</tspan>
    </text>
   </g>
  </pattern>
 </defs>
 <g>
  <title>background</title>
  <rect x="-1" y="-1" width="332" height="92" id="canvas_background" fill="none"/>
 </g>
 <g>
  <title>Layer 1</title>
  <g id="shape_9oCJxg66To" transform="translate(226.6235809326172,64.88712310791016) scale(1) ">
   <svg fill="#ffffff" version="1.1" width="557.8" height="445.7" viewBox="0 0 557.8 445.70000000000005" id="svg_89" x="-279" y="-252" xmlns="http://www.w3.org/2000/svg" xmlns:xlink="http://www.w3.org/1999/xlink">
    <g data-width="309.75" id="svg_90">
     <path d="m102.730001,216.420006l0,-13.56l9.43,0l0,13.56l-9.43,0zm-25.9,16.94l32.19,0l0,-5.21l-32.19,0l0,5.21zm32.19,4.29l-32.19,0l0,5.75l32.19,0l0,-5.75zm10.52,-39.08l-24.2,0l0,22.14l24.2,0l0,-22.14zm-38.23,17.42l0,0q-0.79,1.33 -1.82,2.42l0,0q-2.96,3.21 -8.28,5.39l0,0l17,0q-3.27,-3.88 -6.9,-7.81zm-6.35,-3.26l0,0l-10.35,0l0,-4.3l2.66,0l-2.66,-2.24q3.33,-5.14 5.69,-11.43l0,0l7.32,1.69q-0.42,1.33 -1.03,2.54l0,0l15.97,0l0,4.3l-8.1,0q-0.07,2.72 -0.43,5.14l0,0l9.86,0l0,4.3l-9.19,0q5.26,2.84 9.37,6.47l0,0l-4.65,4.6l27.04,0l0,23.89l-47.01,0l0,-23.23q-1.63,0.55 -3.45,1.03l0,0l-2.36,-3.39q6.66,-2.9 9.74,-6.83l0,0q0.91,-1.21 1.58,-2.54zm-6.6,-4.3l0,0l8.11,0q0.54,-2.36 0.6,-5.14l0,0l-3.14,0q-2.3,2.84 -5.57,5.14z" fill="#ffffff" stroke="#192786" stroke-width="0.103" data-glyph-w="61.95" data-glyph-h="60.498047" data-glyph-ascender="53.238281" data-glyph-descender="-7.259766" id="svg_95"/>
     <path d="m125.590002,244.490006l6.78,3.32q1.88,-3.08 3.33,-10.4l0,0l-4.18,-1.76q-2.24,3.94 -5.93,8.84l0,0zm47.43,4.53l-26.68,0q-2.9,0 -4.84,-2.05l0,0q-1.81,-2 -1.81,-4.6l0,0l0,-6.29l7.38,0l0,3.81q0,1.27 0.91,2.12l0,0q0.85,0.84 1.99,0.84l0,0l24.75,0l-1.7,6.17zm4.42,-13.79q3.93,3.27 6.72,8.23l0,0l-6.05,3.69q-1.58,-4.72 -4.42,-9.8l0,0l3.75,-2.12zm-33.27,-31.03l0,-2l8.95,0l0,-4.36l-8.95,0l0,-2.42l-7.38,0l0,2.42l-8.96,0l0,4.36l8.96,0l0,2l-8.47,0l0,4.29l8.47,0l0,2l-9.56,0l0,4.35l9.56,0l0,2.18l-5.51,0l0,4.3l39.93,0l0,2.11l-38.42,0l0,4.3l38.42,0l0,2.06l-40.59,0l0,4.35l24.26,0l-1.7,1.15q2.97,3.81 5.39,7.26l0,0l5.86,-3.99q-2.48,-2.6 -5.5,-4.42l0,0l19.66,0l0,-17.12l-5.57,0l0,-2.18l9.56,0l0,-4.35l-9.56,0l0,-2l8.47,0l0,-4.29l-8.47,0l0,-2l8.96,0l0,-4.36l-8.96,0l0,-2.42l-7.44,0l0,2.42l-8.95,0l0,4.36l8.95,0l0,2l-8.47,0l0,4.29l8.47,0l0,2l-9.56,0l0,4.35l9.56,0l0,2.18l-21.41,0l0,-2.18l9.56,0l0,-4.35l-9.56,0l0,-2l8.47,0l0,-4.29l-8.47,0z" fill="#ffffff" stroke="#192786" stroke-width="0.103" data-glyph-w="61.95" data-glyph-h="60.498047" data-glyph-ascender="53.238281" data-glyph-descender="-7.259766" id="svg_94"/>
     <path d="m245.200002,222.100006l0,-4.29l-56.69,0l0,4.29l17.43,0q-8.53,14.4 -15.31,20.27l0,0q-1.03,0 -1.09,0l0,0l2.36,6.11q25.83,-1.45 42.53,-5.14l0,0q2.42,4.11 3.87,6.89l0,0l6.9,-3.57q-7.56,-11.85 -17.24,-21.17l0,0l-3.75,1.82q4.11,5.86 8.34,12.94l0,0q-16.39,1.39 -35.27,1.94l0,0q10.77,-8.77 17.91,-20.09l0,0l30.01,0zm-3.39,-19.9l0,-4.36l-49.97,0l0,4.36l49.97,0z" fill="#ffffff" stroke="#192786" stroke-width="0.103" data-glyph-w="61.95" data-glyph-h="60.498047" data-glyph-ascender="53.238281" data-glyph-descender="-7.259766" id="svg_93"/>
     <path d="m304.970007,202.200006l0,-4.36l-52.39,0l0,4.36l22.5,0l0,24.86l-24.62,0l0,4.36l24.62,0l0,18.21l7.39,0l0,-18.21l24.68,0l0,-4.36l-24.68,0l0,-24.86l22.5,0zm-7.44,2.72l6.59,3.57q-5.2,8.41 -14.76,15.49l0,0l-3.02,-2.72q5.62,-6.42 11.19,-16.34l0,0zm-40.53,0q0.3,0 5.08,4.78l0,0q5.81,5.75 9.13,10.53l0,0l-6.29,3.99q-5.08,-8.65 -11.43,-17.12l0,0l3.51,-2.18z" fill="#ffffff" stroke="#192786" stroke-width="0.103" data-glyph-w="61.95" data-glyph-h="60.498047" data-glyph-ascender="53.238281" data-glyph-descender="-7.259766" id="svg_92"/>
     <path d="m363.840004,224.400006l-46.23,0l0,23.23l46.23,0l0,-23.23zm-38.78,18.94l0,-14.64l31.39,0l0,14.64l-31.39,0zm-10.53,-29.65q-0.79,0.06 -1.63,0.06l0,0l2.05,6.9q23.78,-1.15 43.8,-4.66l0,0q2.85,3.27 5.63,6.54l0,0l5.63,-4.96q-7.57,-8.41 -18.03,-15.13l0,0l-3.09,2.6q3.15,3.39 6.17,6.78l0,0q-15.36,1.03 -31.64,1.63l0,0q11.07,-6.9 17.97,-15.49l0,0l-6.96,-3.2q-9.13,10.89 -19.9,18.93l0,0z" fill="#ffffff" stroke="#192786" stroke-width="0.103" data-glyph-w="61.95" data-glyph-h="60.498047" data-glyph-ascender="53.238281" data-glyph-descender="-7.259766" id="svg_91"/>
    </g>
   </svg>
  </g>
  <g id="shape_nzPseVmCHo" transform="translate(271.1616516113281,255.66348266601562) scale(1) ">
   <svg fill="#ffffff" version="1.1" width="371.6" height="149.2" viewBox="0 0 371.59999999999997 149.2" id="svg_96" x="-260" y="-255" xmlns="http://www.w3.org/2000/svg" xmlns:xlink="http://www.w3.org/1999/xlink">
    <g data-width="288.25335" id="svg_97">
     <path d="m10.2,74.299998q1.12,0 2.07,0.56q0.95,0.55 1.5,1.5q0.56,0.95 0.56,2.09l0,0q0,1.14 -0.56,2.09q-0.55,0.94 -1.5,1.5q-0.95,0.56 -2.07,0.56l0,0l-8.92,0l0,-2.23l7.81,0q0.8,0 1.37,-0.56q0.57,-0.56 0.57,-1.36l0,0q0,-0.81 -0.57,-1.36q-0.57,-0.56 -1.37,-0.56l0,0l-4.32,0q-1.11,0 -2.04,-0.55q-0.93,-0.55 -1.48,-1.49q-0.55,-0.93 -0.55,-2.03l0,0q0,-1.11 0.55,-2.04q0.55,-0.93 1.48,-1.48q0.93,-0.55 2.04,-0.55l0,0l8.74,0l0,2.21l-7.65,0q-0.76,0 -1.31,0.55q-0.54,0.55 -0.54,1.31l0,0q0,0.76 0.54,1.3q0.55,0.54 1.31,0.54l0,0l4.34,0z" fill="#ffffff" stroke="#192786" stroke-width="0.034" data-glyph-w="15.0332" data-glyph-h="24.78" data-glyph-ascender="20.65" data-glyph-descender="-4.13" id="svg_117"/>
     <path d="m23.8332,75.039998l4.4,-6.67l3.32,0l0,14.23l-3.32,0l0,-9.25l-2.75,4.17l-3.28,0l-2.9,-4.27l0,9.35l-3.32,0l0,-14.23l3.32,0l4.53,6.67z" fill="#ffffff" stroke="#192786" stroke-width="0.034" data-glyph-w="17.4699" data-glyph-h="24.78" data-glyph-ascender="20.65" data-glyph-descender="-4.13" id="svg_116"/>
     <path d="m48.363101,82.599998l-3.3,0l-4.55,-10.78l-3.63,8.57l4.07,0l1.03,2.21l-9.34,0l6.03,-14.21l3.66,0l6.03,14.21z" fill="#ffffff" stroke="#192786" stroke-width="0.034" data-glyph-w="16.00375" data-glyph-h="24.78" data-glyph-ascender="20.65" data-glyph-descender="-4.13" id="svg_115"/>
     <path d="m63.356851,72.999998q0,1.3 -0.64,2.37q-0.64,1.08 -1.74,1.68l0,0l2.38,5.55l-3.31,0l-2.14,-4.98l-5.23,0l0,4.98l-3.32,0l0,-14.21l9.37,0q1.26,0 2.32,0.62q1.07,0.62 1.69,1.67q0.62,1.06 0.62,2.32l0,0zm-10.68,-2.4l0,4.81l4.96,0q0.99,0 1.7,-0.7q0.71,-0.7 0.71,-1.71l0,0q0,-0.99 -0.71,-1.7q-0.71,-0.7 -1.7,-0.7l0,0l-4.96,0z" fill="#ffffff" stroke="#192786" stroke-width="0.034" data-glyph-w="15.34295" data-glyph-h="24.78" data-glyph-ascender="20.65" data-glyph-descender="-4.13" id="svg_114"/>
     <path d="m64.0798,68.369998l13.65,0l0,2.23l-5.17,0l0,12l-3.32,0l0,-12l-5.16,0l0,-2.23z" fill="#ffffff" stroke="#192786" stroke-width="0.034" data-glyph-w="14.10395" data-glyph-h="24.78" data-glyph-ascender="20.65" data-glyph-descender="-4.13" id="svg_113"/>
     <path fill="#ffffff" stroke="#192786" stroke-width="0.034" data-glyph-w="8.2187" data-glyph-h="20.65" data-glyph-ascender="18.172" data-glyph-descender="-2.478" id="svg_112"/>
     <path d="m100.652447,80.369998l0,2.23l-9.42,0q-1.16,0 -2.12,-0.57q-0.96,-0.57 -1.53,-1.54q-0.56,-0.97 -0.56,-2.1l0,0l0,-5.81q0,-1.13 0.56,-2.09q0.57,-0.96 1.53,-1.53q0.96,-0.57 2.12,-0.57l0,0l9.42,0l0,2.21l-8.31,0q-0.82,0 -1.4,0.57q-0.58,0.57 -0.58,1.41l0,0l0,5.81q0,0.82 0.58,1.4q0.58,0.58 1.4,0.58l0,0l8.31,0z" fill="#ffffff" stroke="#192786" stroke-width="0.034" data-glyph-w="15.3223" data-glyph-h="24.78" data-glyph-ascender="20.65" data-glyph-descender="-4.13" id="svg_111"/>
     <path d="m113.054751,80.369998l0,2.23l-5.84,0q-1.32,0 -2.45,-0.66q-1.12,-0.66 -1.77,-1.78q-0.65,-1.11 -0.65,-2.43l0,0l0,-9.34l3.32,0l0,9.34q0,1.09 0.78,1.87q0.77,0.77 1.86,0.77l0,0l4.75,0z" fill="#ffffff" stroke="#192786" stroke-width="0.034" data-glyph-w="11.95635" data-glyph-h="24.78" data-glyph-ascender="20.65" data-glyph-descender="-4.13" id="svg_110"/>
     <path d="m114.301103,71.609998q0,-0.86 0.43,-1.61q0.43,-0.74 1.18,-1.17q0.74,-0.44 1.61,-0.44l0,0l7.16,0q0.89,0 1.63,0.44q0.75,0.43 1.18,1.17q0.44,0.75 0.44,1.61l0,0l0,7.75q0,0.87 -0.44,1.62q-0.43,0.75 -1.18,1.19q-0.74,0.43 -1.63,0.43l0,0l-7.16,0q-0.87,0 -1.61,-0.44q-0.75,-0.45 -1.18,-1.19q-0.43,-0.74 -0.43,-1.61l0,0l0,-7.75zm8.65,8.76q0.68,0 1.17,-0.49q0.48,-0.48 0.48,-1.16l0,0l0,-6.44q0,-0.71 -0.48,-1.19q-0.49,-0.49 -1.17,-0.49l0,0l-3.68,0q-0.7,0 -1.18,0.49q-0.49,0.48 -0.49,1.19l0,0l0,6.44q0,0.68 0.49,1.16q0.48,0.49 1.18,0.49l0,0l3.68,0z" fill="#ffffff" stroke="#192786" stroke-width="0.034" data-glyph-w="15.3223" data-glyph-h="24.78" data-glyph-ascender="20.65" data-glyph-descender="-4.13" id="svg_109"/>
     <path d="m129.623407,68.389998l3.32,0l0,10.33q0,0.68 0.49,1.16q0.48,0.49 1.18,0.49l0,0l3.66,0q0.7,0 1.19,-0.49q0.48,-0.48 0.48,-1.16l0,0l0,-10.33l3.33,0l0,10.97q0,0.87 -0.45,1.61q-0.44,0.74 -1.19,1.19q-0.74,0.44 -1.61,0.44l0,0l-7.16,0q-0.89,0 -1.63,-0.43q-0.75,-0.44 -1.18,-1.19q-0.43,-0.75 -0.43,-1.62l0,0l0,-10.97z" fill="#ffffff" stroke="#192786" stroke-width="0.034" data-glyph-w="15.34295" data-glyph-h="24.78" data-glyph-ascender="20.65" data-glyph-descender="-4.13" id="svg_108"/>
     <path d="m144.966348,68.389998l8.69,0q1.34,0 2.48,0.66q1.13,0.66 1.79,1.8q0.67,1.14 0.67,2.48l0,0l0,4.33q0,1.35 -0.67,2.48q-0.66,1.14 -1.79,1.8q-1.14,0.66 -2.48,0.66l0,0l-8.69,0l0,-14.21zm7.6,11.98q0.72,0 1.35,-0.36q0.63,-0.36 0.99,-0.99q0.36,-0.63 0.36,-1.36l0,0l0,-4.33q0,-0.75 -0.36,-1.38q-0.36,-0.62 -0.99,-0.99q-0.63,-0.36 -1.35,-0.36l0,0l-4.3,0l0,9.77l4.3,0z" fill="#ffffff" stroke="#192786" stroke-width="0.034" data-glyph-w="15.3223" data-glyph-h="24.78" data-glyph-ascender="20.65" data-glyph-descender="-4.13" id="svg_107"/>
     <path fill="#ffffff" stroke="#192786" stroke-width="0.034" data-glyph-w="8.2187" data-glyph-h="20.65" data-glyph-ascender="18.172" data-glyph-descender="-2.478" id="svg_106"/>
     <path d="m198.527348,68.389998q1.26,0 2.32,0.62q1.07,0.62 1.69,1.67q0.62,1.06 0.62,2.32l0,0q0,1.26 -0.62,2.32q-0.62,1.06 -1.69,1.68q-1.06,0.62 -2.32,0.62l0,0l-6.07,0l0,4.98l-3.3,0l0,-14.21l9.37,0zm-1.09,7.02q0.99,0 1.69,-0.7q0.7,-0.7 0.7,-1.71l0,0q0,-0.99 -0.7,-1.7q-0.7,-0.7 -1.69,-0.7l0,0l-4.98,0l0,4.81l4.98,0z" fill="#ffffff" stroke="#192786" stroke-width="0.034" data-glyph-w="15.5288" data-glyph-h="24.78" data-glyph-ascender="20.65" data-glyph-descender="-4.13" id="svg_105"/>
     <path d="m215.396157,80.369998l0,2.23l-5.84,0q-1.32,0 -2.45,-0.66q-1.12,-0.66 -1.77,-1.78q-0.65,-1.11 -0.65,-2.43l0,0l0,-9.34l3.32,0l0,9.34q0,1.09 0.78,1.87q0.77,0.77 1.86,0.77l0,0l4.75,0z" fill="#ffffff" stroke="#192786" stroke-width="0.034" data-glyph-w="11.95635" data-glyph-h="24.78" data-glyph-ascender="20.65" data-glyph-descender="-4.13" id="svg_104"/>
     <path d="m231.652501,82.599998l-3.3,0l-4.55,-10.78l-3.63,8.57l4.07,0l1.03,2.21l-9.34,0l6.03,-14.21l3.66,0l6.03,14.21z" fill="#ffffff" stroke="#192786" stroke-width="0.034" data-glyph-w="16.00375" data-glyph-h="24.78" data-glyph-ascender="20.65" data-glyph-descender="-4.13" id="svg_103"/>
     <path d="m232.026255,68.369998l13.65,0l0,2.23l-5.17,0l0,12l-3.32,0l0,-12l-5.16,0l0,-2.23z" fill="#ffffff" stroke="#192786" stroke-width="0.034" data-glyph-w="14.10395" data-glyph-h="24.78" data-glyph-ascender="20.65" data-glyph-descender="-4.13" id="svg_102"/>
     <path d="m252.690198,70.599998q-0.7,0 -1.31,0.35q-0.61,0.35 -0.97,0.96q-0.36,0.61 -0.36,1.34l0,0l0,2.25l10.33,0l0,2.21l-10.33,0l0,4.89l-3.3,0l0,-9.35q0,-1.33 0.65,-2.44q0.65,-1.12 1.76,-1.77q1.12,-0.65 2.44,-0.65l0,0l8.78,0l0,2.21l-7.69,0z" fill="#ffffff" stroke="#192786" stroke-width="0.034" data-glyph-w="14.868" data-glyph-h="24.78" data-glyph-ascender="20.65" data-glyph-descender="-4.13" id="svg_101"/>
     <path d="m261.618194,71.609998q0,-0.86 0.43,-1.61q0.43,-0.74 1.18,-1.17q0.74,-0.44 1.61,-0.44l0,0l7.16,0q0.89,0 1.63,0.44q0.75,0.43 1.18,1.17q0.44,0.75 0.44,1.61l0,0l0,7.75q0,0.87 -0.44,1.62q-0.43,0.75 -1.18,1.19q-0.74,0.43 -1.63,0.43l0,0l-7.16,0q-0.87,0 -1.61,-0.44q-0.75,-0.45 -1.18,-1.19q-0.43,-0.74 -0.43,-1.61l0,0l0,-7.75zm8.65,8.76q0.68,0 1.17,-0.49q0.48,-0.48 0.48,-1.16l0,0l0,-6.44q0,-0.71 -0.48,-1.19q-0.49,-0.49 -1.17,-0.49l0,0l-3.68,0q-0.7,0 -1.18,0.49q-0.49,0.48 -0.49,1.19l0,0l0,6.44q0,0.68 0.49,1.16q0.48,0.49 1.18,0.49l0,0l3.68,0z" fill="#ffffff" stroke="#192786" stroke-width="0.034" data-glyph-w="15.3223" data-glyph-h="24.78" data-glyph-ascender="20.65" data-glyph-descender="-4.13" id="svg_100"/>
     <path d="m290.940506,72.999998q0,1.3 -0.64,2.37q-0.64,1.08 -1.74,1.68l0,0l2.38,5.55l-3.31,0l-2.14,-4.98l-5.23,0l0,4.98l-3.32,0l0,-14.21l9.37,0q1.26,0 2.32,0.62q1.07,0.62 1.69,1.67q0.62,1.06 0.62,2.32l0,0zm-10.68,-2.4l0,4.81l4.96,0q0.99,0 1.7,-0.7q0.71,-0.7 0.71,-1.71l0,0q0,-0.99 -0.71,-1.7q-0.71,-0.7 -1.7,-0.7l0,0l-4.96,0z" fill="#ffffff" stroke="#192786" stroke-width="0.034" data-glyph-w="15.34295" data-glyph-h="24.78" data-glyph-ascender="20.65" data-glyph-descender="-4.13" id="svg_99"/>
     <path d="m300.233447,75.039998l4.4,-6.67l3.32,0l0,14.23l-3.32,0l0,-9.25l-2.75,4.17l-3.28,0l-2.9,-4.27l0,9.35l-3.32,0l0,-14.23l3.32,0l4.53,6.67z" fill="#ffffff" stroke="#192786" stroke-width="0.034" data-glyph-w="17.4699" data-glyph-h="24.78" data-glyph-ascender="20.65" data-glyph-descender="-4.13" id="svg_98"/>
    </g>
   </svg>
  </g>
 </g>
</svg>